<svg version="1.1" xmlns="http://www.w3.org/2000/svg" xmlns:xlink="http://www.w3.org/1999/xlink" width="10px" height="10px" viewBox="0,0,256,256"><g fill="#ff4500" fill-rule="nonzero" stroke="none" stroke-width="1" stroke-linecap="butt" stroke-linejoin="miter" stroke-miterlimit="10" stroke-dasharray="" stroke-dashoffset="0" font-family="none" font-weight="none" font-size="none" text-anchor="none" style="mix-blend-mode: normal"><g transform="scale(25.6,25.6)"><g id="surface1"><path d="M9.82031,2.22656l-0.87891,-0.87891c-0.12109,-0.12109 -0.26562,-0.17969 -0.4375,-0.17969c-0.17187,0 -0.32031,0.05859 -0.4375,0.17969l-4.23437,4.23828l-1.89844,-1.90234c-0.11719,-0.12109 -0.26562,-0.17969 -0.4375,-0.17969c-0.17187,0 -0.31641,0.05859 -0.4375,0.17969l-0.87891,0.87891c-0.12109,0.12109 -0.17969,0.26563 -0.17969,0.4375c0,0.17188 0.05859,0.32031 0.17969,0.4375l3.21484,3.21484c0.12109,0.12109 0.26563,0.17969 0.4375,0.17969c0.17187,0 0.32031,-0.05859 0.4375,-0.17969l5.55078,-5.55078c0.12109,-0.11719 0.17969,-0.26562 0.17969,-0.4375c0,-0.17187 -0.05859,-0.31641 -0.17969,-0.4375zM9.82031,2.22656"></path></g></g></g></svg>