<svg version="1.1" xmlns="http://www.w3.org/2000/svg" xmlns:xlink="http://www.w3.org/1999/xlink" width="15px" height="15px" viewBox="0,0,256,256"><g fill="#ff6000" fill-rule="nonzero" stroke="none" stroke-width="1" stroke-linecap="butt" stroke-linejoin="miter" stroke-miterlimit="10" stroke-dasharray="" stroke-dashoffset="0" font-family="none" font-weight="none" font-size="none" text-anchor="none" style="mix-blend-mode: normal"><g transform="scale(17.06667,17.06667)"><g id="surface1"><path d="M14.73047,3.33984l-1.31641,-1.31641c-0.17969,-0.17969 -0.40234,-0.27344 -0.66016,-0.27344c-0.25781,0 -0.47656,0.09375 -0.65625,0.27344l-6.34766,6.35547l-2.84766,-2.85156c-0.17969,-0.18359 -0.39844,-0.27344 -0.65625,-0.27344c-0.25781,0 -0.47656,0.08984 -0.66016,0.27344l-1.31641,1.31641c-0.17969,0.17969 -0.26953,0.39844 -0.26953,0.65625c0,0.25781 0.08984,0.47656 0.26953,0.66016l3.50391,3.5l1.31641,1.31641c0.17969,0.17969 0.40234,0.27344 0.66016,0.27344c0.25781,0 0.47656,-0.09375 0.65625,-0.27344l1.31641,-1.31641l7.00781,-7.00391c0.17969,-0.18359 0.26953,-0.40234 0.26953,-0.66016c0,-0.25781 -0.08984,-0.47656 -0.26953,-0.65625zM14.73047,3.33984"></path></g></g></g></svg>